<svg width="22" height="22" viewBox="0 0 22 22" fill="none" xmlns="http://www.w3.org/2000/svg">
<path d="M11 21C16.5228 21 21 16.5228 21 11C21 5.47715 16.5228 1 11 1C5.47715 1 1 5.47715 1 11C1 16.5228 5.47715 21 11 21Z" stroke="#43B285" stroke-miterlimit="10"/>
<path d="M15.2423 7.95343C15.0889 7.80003 14.8419 7.80003 14.6885 7.95343L8.85938 13.7825L9.41314 14.3363L15.2438 8.50566C15.3957 8.3538 15.3957 8.10529 15.2423 7.95343Z" fill="#43B285"/>
<path d="M6.71075 11.086C6.55735 11.2394 6.55735 11.4864 6.71075 11.6398L9.40902 14.338L9.96278 13.7843L7.26452 11.086C7.11112 10.9326 6.86415 10.9326 6.71075 11.086Z" fill="#43B285"/>
</svg>
