<svg width="22" height="22" viewBox="0 0 22 22" fill="none" xmlns="http://www.w3.org/2000/svg">
<path d="M11 21C5.47715 21 1 16.5228 1 11C1 5.47715 5.47715 1 11 1C16.5228 1 21 5.47715 21 11C21 16.5228 16.5228 21 11 21Z" stroke="#E83C3B" stroke-miterlimit="10"/>
<path d="M7.72709 7.61007L7.72817 7.60899C7.87075 7.46641 8.10191 7.46641 8.24448 7.60899L14.4359 13.8004C14.5784 13.9429 14.5784 14.1741 14.4359 14.3167L14.4348 14.3178C14.2922 14.4603 14.0611 14.4603 13.9185 14.3178L7.72709 8.12638C7.58451 7.98381 7.58451 7.75265 7.72709 7.61007Z" fill="#E83D3A"/>
<path d="M7.72994 14.3193L7.72886 14.3182C7.58628 14.1756 7.58628 13.9445 7.72886 13.8019L13.9202 7.61052C14.0628 7.46794 14.294 7.46794 14.4366 7.61052L14.4376 7.6116C14.5802 7.75418 14.5802 7.98534 14.4376 8.12791L8.24625 14.3193C8.10368 14.4619 7.87252 14.4619 7.72994 14.3193Z" fill="#E83C3B"/>
</svg>
