<svg width="20" height="20" viewBox="0 0 20 20" fill="none" xmlns="http://www.w3.org/2000/svg">
<path d="M10 0C9.67641 0 9.41406 0.262344 9.41406 0.585938V4.35156C9.41406 4.67516 9.67641 4.9375 10 4.9375C10.3236 4.9375 10.5859 4.67516 10.5859 4.35156V0.585938C10.5859 0.262344 10.3236 0 10 0Z" fill="#585858"/>
<path d="M10 15.0625C9.67641 15.0625 9.41406 15.3248 9.41406 15.6484V19.414C9.41406 19.7376 9.67641 20 10 20C10.3236 20 10.5859 19.7376 10.5859 19.414V15.6484C10.5859 15.3248 10.3236 15.0625 10 15.0625Z" fill="#585858"/>
<path d="M7.68328 4.81544L5.80047 1.55431C5.63867 1.27403 5.28032 1.17802 5.00008 1.33985C4.71985 1.50165 4.62383 1.86001 4.78563 2.14024L6.66844 5.40137C6.77696 5.58938 6.97391 5.69442 7.17641 5.69442C7.27582 5.69442 7.37656 5.66911 7.46883 5.61583C7.74906 5.45403 7.84508 5.09567 7.68328 4.81544Z" fill="#585858"/>
<path d="M15.2145 17.8598L13.3317 14.5987C13.1699 14.3185 12.8116 14.2225 12.5313 14.3843C12.2511 14.5461 12.1551 14.9044 12.3169 15.1847L14.1997 18.4457C14.3082 18.6337 14.5051 18.7388 14.7076 18.7388C14.807 18.7388 14.9078 18.7135 15 18.6602C15.2803 18.4984 15.3763 18.14 15.2145 17.8598Z" fill="#585858"/>
<path d="M5.40188 6.66852L2.14071 4.78567C1.86039 4.6238 1.50211 4.71985 1.34032 5.00012C1.17852 5.28036 1.27453 5.63872 1.55477 5.80051L4.81594 7.6834C4.90821 7.73669 5.00895 7.762 5.10836 7.762C5.31086 7.762 5.50782 7.65692 5.61633 7.46891C5.77813 7.18868 5.68211 6.83032 5.40188 6.66852Z" fill="#585858"/>
<path d="M18.4467 14.1996L15.1856 12.3169C14.9053 12.1551 14.547 12.2511 14.3852 12.5314C14.2234 12.8116 14.3195 13.17 14.5997 13.3318L17.8608 15.2145C17.9531 15.2678 18.0538 15.2931 18.1532 15.2931C18.3557 15.2931 18.5527 15.188 18.6612 15.0001C18.823 14.7198 18.727 14.3614 18.4467 14.1996Z" fill="#585858"/>
<path d="M4.3516 9.41406H0.585938C0.262344 9.41406 0 9.67641 0 10C0 10.3236 0.262344 10.5859 0.585938 10.5859H4.3516C4.6752 10.5859 4.93754 10.3236 4.93754 10C4.93754 9.67641 4.6752 9.41406 4.3516 9.41406Z" fill="#585858"/>
<path d="M19.414 9.41406H15.6484C15.3248 9.41406 15.0625 9.67641 15.0625 10C15.0625 10.3236 15.3248 10.5859 15.6484 10.5859H19.414C19.7376 10.5859 19.9999 10.3236 19.9999 10C19.9999 9.67641 19.7376 9.41406 19.414 9.41406Z" fill="#585858"/>
<path d="M5.61633 12.5314C5.45454 12.2511 5.09625 12.1551 4.81594 12.3169L1.55477 14.1997C1.27453 14.3615 1.17852 14.7199 1.34032 15.0001C1.44883 15.1881 1.64578 15.2932 1.84828 15.2932C1.9477 15.2932 2.04844 15.2678 2.14071 15.2146L5.40188 13.3317C5.68211 13.17 5.77813 12.8116 5.61633 12.5314Z" fill="#585858"/>
<path d="M18.6592 5.00009C18.4974 4.71982 18.1391 4.62384 17.8588 4.78564L14.5977 6.66845C14.3175 6.83021 14.2215 7.18857 14.3833 7.4688C14.4918 7.65681 14.6888 7.76189 14.8913 7.76189C14.9906 7.76189 15.0914 7.73657 15.1837 7.68329L18.4448 5.80048C18.725 5.63868 18.821 5.28032 18.6592 5.00009Z" fill="#585858"/>
<path d="M7.46883 14.3843C7.1886 14.2224 6.8302 14.3185 6.66844 14.5988L4.78563 17.8599C4.62383 18.1401 4.71985 18.4985 5.00008 18.6603C5.09235 18.7136 5.19309 18.7389 5.2925 18.7389C5.495 18.7389 5.69199 18.6338 5.80047 18.4458L7.68328 15.1847C7.84508 14.9045 7.74906 14.5461 7.46883 14.3843Z" fill="#585858"/>
<path d="M15.0001 1.33987C14.7198 1.178 14.3614 1.27405 14.1997 1.55432L12.3169 4.81538C12.1551 5.09561 12.2511 5.45397 12.5314 5.61577C12.6236 5.66905 12.7244 5.69436 12.8238 5.69436C13.0263 5.69436 13.2232 5.58928 13.3317 5.40131L15.2145 2.14026C15.3763 1.86003 15.2803 1.50167 15.0001 1.33987Z" fill="#585858"/>
</svg>
